<?xml version="1.0" standalone="no"?>
<!DOCTYPE svg PUBLIC "-//W3C//DTD SVG 20010904//EN"
 "http://www.w3.org/TR/2001/REC-SVG-20010904/DTD/svg10.dtd">
<svg version="1.0" xmlns="http://www.w3.org/2000/svg"
 width="733.000000pt" height="733.000000pt" viewBox="0 0 733.000000 733.000000"
 preserveAspectRatio="xMidYMid meet">
<metadata>
Created by potrace 1.14, written by Peter Selinger 2001-2017
</metadata>
<g transform="translate(0.000000,733.000000) scale(0.100000,-0.100000)"
fill="#000000" stroke="none">
<path d="M3690 6465 c-36 -7 -102 -28 -147 -45 -93 -36 -100 -48 -57 -99 22
-27 32 -31 75 -31 27 0 82 9 122 21 88 25 297 36 407 21 52 -8 78 -8 87 0 9 7
17 7 26 -1 20 -16 27 -3 15 25 -12 26 -69 64 -97 64 -9 0 -21 4 -26 9 -6 5
-51 18 -101 30 -103 24 -206 26 -304 6z"/>
<path d="M2772 6106 c-144 -107 -295 -260 -320 -326 -3 -8 -21 -38 -40 -67
-26 -39 -35 -66 -39 -112 -4 -39 -2 -61 4 -61 12 0 120 105 241 236 45 49 99
100 119 114 20 14 58 44 84 68 37 34 48 51 53 85 7 51 -5 101 -26 105 -8 2
-42 -17 -76 -42z"/>
<path d="M4260 5895 c-47 -24 -141 -64 -210 -91 -189 -71 -270 -105 -270 -112
0 -4 15 -17 34 -30 45 -31 87 -25 266 38 118 41 135 50 133 68 -2 16 6 23 32
32 19 6 39 9 45 5 5 -3 10 0 10 9 0 8 4 16 8 18 10 4 53 108 44 107 -4 -1 -45
-21 -92 -44z"/>
<path d="M3600 5455 c-20 -24 1 -41 29 -23 12 7 20 17 18 23 -6 17 -33 17 -47
0z"/>
<path d="M3040 5429 c-140 -62 -398 -128 -511 -132 -62 -1 -65 -10 -20 -51 12
-11 31 -35 43 -54 21 -34 22 -34 79 -30 33 2 66 11 76 20 10 9 71 39 137 67
147 62 162 72 169 109 5 23 17 35 52 52 25 12 45 26 45 31 0 13 -20 10 -70
-12z"/>
<path d="M2131 5414 c0 -11 3 -14 6 -6 3 7 2 16 -1 19 -3 4 -6 -2 -5 -13z"/>
<path d="M3375 5350 c-4 -7 -3 -16 3 -22 14 -14 57 -6 57 12 0 18 -50 26 -60
10z"/>
<path d="M3607 4929 c-37 -21 -63 -109 -33 -109 30 0 156 53 156 65 0 21 -50
55 -79 55 -14 0 -34 -5 -44 -11z"/>
<path d="M2230 4794 c0 -8 5 -12 10 -9 6 4 8 11 5 16 -9 14 -15 11 -15 -7z"/>
<path d="M2210 4765 c0 -8 -5 -15 -11 -15 -32 0 -69 -71 -68 -132 1 -50 1 -51
11 -23 20 58 58 78 58 31 0 -14 4 -27 10 -31 5 -3 6 -12 3 -21 -4 -10 15 -35
54 -72 50 -47 64 -56 84 -51 13 4 18 7 12 8 -7 1 -13 5 -13 10 0 16 74 8 102
-11 14 -10 32 -18 40 -18 8 -1 7 -4 -4 -11 -25 -14 -23 -33 1 -19 26 14 38 13
23 -2 -7 -7 -12 -16 -12 -20 0 -16 18 -7 48 23 l31 32 -67 70 c-102 106 -112
117 -112 129 0 5 -7 8 -15 4 -8 -3 -15 -1 -15 4 0 6 5 10 11 10 17 0 -1 20
-19 20 -9 1 -28 14 -42 30 -13 17 -32 30 -42 30 -10 0 -18 4 -18 8 0 5 -11 14
-25 20 -21 10 -25 9 -25 -3z"/>
<path d="M4380 4688 c-14 -6 -30 -12 -37 -14 -39 -8 -83 -27 -83 -36 0 -6 -7
-8 -15 -4 -9 3 -21 -4 -31 -19 -9 -14 -25 -25 -35 -25 -11 0 -19 -4 -19 -10 0
-5 -5 -10 -10 -10 -6 0 -28 -11 -49 -24 -21 -14 -41 -22 -45 -19 -3 3 -8 -2
-12 -11 -3 -9 -12 -16 -19 -16 -8 0 -29 -9 -47 -19 -18 -11 -55 -23 -83 -27
-56 -7 -105 -29 -105 -45 0 -6 -9 -9 -20 -6 -12 3 -25 -2 -33 -12 -9 -14 -26
-17 -72 -17 -33 1 -62 -1 -65 -5 -8 -10 -150 -17 -156 -8 -2 5 -15 4 -28 -1
-14 -5 -27 -5 -33 1 -5 5 -32 11 -60 14 -29 2 -71 9 -95 14 -24 5 -50 9 -58 9
-38 -3 -49 2 -43 20 5 16 5 16 -12 1 -16 -16 -18 -16 -36 2 -12 12 -27 16 -44
13 -21 -4 -28 0 -32 17 -5 17 -11 20 -34 15 -31 -6 -84 16 -93 39 -3 8 -14 15
-25 15 -30 0 -51 11 -51 26 0 10 -13 6 -46 -12 -26 -14 -43 -21 -40 -15 4 7
-1 11 -13 11 -14 0 -21 6 -21 20 0 15 -6 19 -25 18 -14 -1 -25 -5 -25 -8 0
-10 78 -80 89 -80 7 0 11 -8 9 -17 -2 -13 3 -17 19 -16 17 2 21 -2 18 -17 -2
-12 3 -21 16 -25 10 -4 19 -14 20 -23 0 -14 2 -13 9 3 7 18 8 19 15 3 4 -10
13 -18 21 -18 8 0 14 -6 14 -14 0 -8 9 -17 19 -21 11 -3 35 -16 54 -29 19 -13
50 -27 68 -31 19 -4 43 -14 54 -21 20 -13 78 -27 175 -42 60 -9 337 -9 428 1
47 4 72 4 72 -3 0 -5 -4 -10 -9 -10 -5 0 -21 -4 -35 -10 l-25 -9 20 -58 c12
-32 23 -77 26 -100 l5 -42 -26 12 c-14 7 -21 14 -16 15 15 6 12 38 -6 53 -12
10 -19 10 -32 1 -10 -7 -27 -16 -39 -22 -13 -5 -23 -14 -23 -19 0 -5 -9 -13
-20 -16 -11 -3 -20 -12 -20 -20 0 -7 -23 -32 -50 -55 -52 -43 -80 -85 -80
-117 0 -10 -9 -23 -19 -30 -36 -22 -246 -207 -316 -277 -147 -148 -232 -315
-384 -756 -31 -91 -65 -196 -76 -234 -17 -58 -27 -74 -66 -106 -52 -44 -84
-99 -132 -226 -24 -62 -35 -107 -36 -149 -1 -59 17 -175 28 -185 3 -3 15 -23
26 -45 11 -22 53 -73 93 -114 47 -48 72 -81 71 -95 -1 -17 -2 -18 -6 -3 -6 24
-50 67 -68 67 -8 0 -15 6 -15 14 0 8 -4 17 -9 20 -5 4 -7 -4 -3 -16 4 -18 2
-20 -17 -15 -12 3 -34 -1 -49 -8 -15 -8 -34 -16 -44 -19 -13 -4 -16 -15 -14
-56 2 -28 -1 -53 -6 -56 -9 -6 -12 3 -22 49 -9 37 -30 23 -22 -14 6 -32 4 -34
-23 -17 -29 18 -52 3 -49 -32 2 -25 6 -29 23 -24 11 4 24 13 28 20 13 23 26
16 23 -13 -2 -26 -5 -28 -38 -25 -36 3 -37 2 -33 -27 3 -26 0 -30 -18 -28 -16
1 -23 -4 -25 -20 -4 -28 -19 -30 -27 -3 -6 18 -8 19 -31 4 -13 -9 -24 -24 -24
-34 0 -10 -8 -21 -17 -24 -10 -3 -26 -19 -35 -36 -17 -30 -17 -30 10 -45 19
-10 22 -14 10 -15 -26 0 -22 -20 5 -21 22 -1 22 -1 -2 -8 -13 -3 -27 -16 -32
-28 -6 -17 -5 -21 7 -16 8 3 14 -1 14 -10 0 -8 7 -20 15 -27 19 -16 19 -30 1
-30 -8 0 -16 10 -18 23 -4 20 -6 18 -23 -15 -17 -34 -31 -44 -58 -39 -20 4 2
-25 28 -38 27 -13 28 -15 10 -21 -18 -6 -20 -17 -21 -87 -1 -84 -10 -116 -25
-92 -6 9 -9 -6 -9 -40 0 -52 -1 -53 -25 -47 -20 5 -27 1 -40 -24 -14 -27 -14
-30 5 -40 23 -12 18 -30 -9 -30 -14 0 -17 -6 -13 -30 4 -31 16 -38 28 -19 3 6
17 9 30 6 16 -3 24 0 24 9 0 8 4 14 9 14 11 0 21 -25 21 -50 0 -10 9 -20 21
-23 15 -4 20 -13 19 -34 -4 -57 -1 -63 28 -63 l27 1 -24 13 c-13 7 -19 16 -14
19 5 3 8 20 5 37 -3 23 0 30 12 30 9 0 16 -5 16 -12 0 -6 7 -4 18 5 22 20 39
22 45 5 3 -10 7 -10 20 1 13 10 17 10 17 1 0 -6 -8 -14 -18 -17 -12 -3 -25
-25 -37 -59 -18 -52 -35 -79 -35 -54 0 7 -8 9 -19 5 -10 -3 -24 1 -31 10 -18
21 -64 19 -85 -5 -23 -25 -35 -25 -35 0 0 12 -7 20 -16 20 -13 0 -15 -6 -9
-27 5 -22 4 -25 -5 -16 -7 6 -15 32 -17 58 -5 41 -3 47 16 52 14 4 20 11 17
20 -3 8 -6 17 -6 19 0 2 -7 4 -15 4 -9 0 -18 -12 -21 -28 -3 -15 -15 -32 -27
-37 -32 -14 -31 -69 1 -73 17 -3 21 -8 17 -22 -3 -10 0 -24 8 -31 8 -9 12 -34
10 -72 -2 -54 -1 -58 19 -55 11 2 24 -4 28 -12 4 -8 12 -25 18 -37 8 -16 9
-24 1 -29 -7 -4 -10 -28 -7 -61 3 -35 1 -56 -6 -59 -21 -8 -16 -42 7 -48 12
-3 937 -6 2055 -6 l2032 0 -6 28 c-3 15 -15 43 -25 62 -10 19 -26 52 -35 73
-14 33 -28 43 -108 81 -107 52 -158 64 -594 139 -46 8 -86 17 -89 20 -3 3 4
18 15 34 52 75 92 206 92 304 0 124 -27 206 -120 359 -22 36 -53 90 -69 120
-31 60 -53 83 -118 125 l-42 27 4 117 c2 64 9 150 14 191 6 41 11 80 11 86 0
7 42 13 113 17 144 8 207 21 284 56 124 58 260 229 299 374 8 29 14 100 14
160 l0 108 -48 102 c-27 56 -61 131 -77 167 -45 106 -57 130 -111 225 -28 49
-84 151 -124 225 -92 169 -135 239 -184 298 -166 200 -236 254 -481 377 -135
68 -175 93 -175 107 0 25 -23 48 -58 57 -15 4 -33 19 -39 33 -13 25 -57 61
-78 63 -5 1 -18 5 -27 9 -29 13 -48 -1 -48 -34 0 -16 -4 -30 -9 -30 -15 0 -34
165 -27 235 6 60 4 65 -13 65 -11 0 -23 -4 -26 -10 -3 -5 -12 -10 -18 -10 -7
0 3 10 21 21 17 12 32 25 32 30 0 5 6 9 13 9 11 0 117 96 117 106 0 7 62 85
82 104 9 8 19 26 22 40 3 14 3 19 0 13 -8 -18 -25 -16 -18 2 7 17 7 17 -26 3z
m-233 -730 c7 -5 21 -7 31 -4 25 8 45 -17 45 -54 l0 -30 39 39 c41 43 45 38
24 -32 -27 -89 -339 -580 -366 -575 -31 6 -174 218 -243 360 -52 107 -53 114
-31 143 15 20 15 20 35 -7 29 -39 77 -89 139 -144 l54 -49 -56 63 -56 64 30
45 c17 24 37 47 44 50 8 3 14 11 14 19 0 32 88 94 135 94 11 0 29 6 39 13 21
16 105 19 123 5z m1158 -1178 c130 -33 175 -50 175 -67 0 -6 5 -15 12 -19 7
-5 8 -3 3 6 -5 8 -3 11 5 8 20 -6 24 -28 6 -28 -9 0 -16 -4 -16 -10 0 -5 11
-10 25 -10 17 0 25 6 26 18 0 11 2 12 6 4 3 -7 0 -18 -6 -25 -7 -10 -5 -18 10
-31 15 -13 20 -26 17 -47 -3 -17 1 -34 9 -40 10 -9 13 -3 13 32 0 25 4 39 8
32 4 -7 6 -28 4 -47 -3 -28 -10 -37 -36 -47 -25 -9 -27 -13 -12 -16 10 -3 22
1 27 8 4 7 11 10 15 7 3 -4 -1 -14 -10 -23 -21 -22 -20 -31 7 -50 20 -15 20
-16 2 -11 -60 16 -73 17 -81 5 -4 -7 -3 -14 3 -16 6 -2 9 -13 6 -23 -4 -14 0
-20 11 -20 9 0 16 8 16 20 0 13 7 20 19 20 18 0 19 -3 9 -30 -7 -22 -7 -34 1
-44 8 -10 9 -16 1 -21 -5 -3 -10 1 -10 9 0 9 -4 16 -9 16 -5 0 -8 -11 -7 -25
0 -14 4 -25 7 -25 4 0 4 -14 0 -31 -5 -25 -14 -34 -45 -44 -41 -14 -66 -11
-66 10 0 7 -15 18 -32 26 -40 15 -170 97 -180 113 -4 6 -8 7 -8 3 0 -5 -4 -5
-10 -2 -6 4 -3 17 7 33 13 20 14 24 3 16 -19 -13 -56 -11 -93 6 -30 15 -52 4
-25 -11 20 -11 92 -72 158 -132 25 -23 56 -63 69 -89 22 -46 22 -48 4 -72 -24
-33 -96 -48 -210 -45 -78 2 -123 11 -253 47 -32 9 -71 15 -250 40 -52 7 -56 9
-66 42 -8 25 -18 36 -35 38 -13 2 -37 9 -54 17 -133 62 -169 72 -272 75 -7 0
-13 8 -13 19 0 20 61 41 119 41 17 0 31 4 31 9 0 16 -61 34 -117 33 -72 -1
-97 11 -89 43 6 22 4 23 -22 13 -23 -9 -33 -7 -55 7 -45 29 -30 61 27 57 19
-2 33 4 42 17 10 13 35 23 84 31 39 6 68 15 65 20 -3 4 -25 14 -51 21 -57 17
-73 34 -52 56 15 14 23 13 90 -12 112 -42 114 -43 195 -132 l75 -83 56 6 c112
11 195 26 182 34 -20 12 21 46 66 55 22 4 44 11 49 15 6 5 28 10 50 12 36 3
40 6 43 33 4 36 22 59 22 28 0 -22 19 -43 21 -24 1 6 2 17 3 24 1 6 7 11 14
10 7 -2 12 6 12 18 0 14 5 19 14 16 8 -3 20 1 27 9 8 10 15 11 24 4 9 -8 15
-8 20 0 11 18 -3 24 -48 23 -37 -1 -39 -1 -12 6 17 4 29 12 28 19 -2 8 16 12
56 12 33 0 63 5 66 10 8 13 29 13 80 0z m-280 -90 c3 -5 -1 -10 -9 -10 -8 0
-18 5 -21 10 -3 6 1 10 9 10 8 0 18 -4 21 -10z m-185 -100 c0 -5 -4 -10 -10
-10 -5 0 -10 5 -10 10 0 6 5 10 10 10 6 0 10 -4 10 -10z m-2000 -104 c0 -3 -4
-8 -10 -11 -5 -3 -10 -1 -10 4 0 6 5 11 10 11 6 0 10 -2 10 -4z m45 -6 c3 -5
1 -10 -4 -10 -6 0 -11 -5 -11 -11 0 -5 8 -9 18 -8 9 1 25 -1 35 -6 25 -11 67
3 68 23 1 11 4 8 8 -8 9 -31 10 -31 -25 -33 -32 -3 -46 -27 -14 -27 11 0 31
-7 43 -14 12 -9 38 -14 58 -12 32 3 36 1 32 -15 -6 -21 12 -26 20 -6 3 6 6 -2
6 -19 1 -17 10 -48 21 -70 12 -21 18 -29 15 -16 -4 15 -2 22 7 22 17 0 47 -20
31 -20 -7 0 -13 -4 -13 -10 0 -6 3 -9 8 -9 14 3 72 -23 72 -32 0 -5 -4 -9 -10
-9 -18 0 -10 -32 9 -37 14 -3 19 -13 18 -31 -2 -24 -27 -46 -27 -24 0 6 -9 8
-20 5 -16 -4 -18 -9 -9 -19 6 -7 17 -10 25 -7 15 6 17 -1 8 -34 -4 -13 -13
-23 -20 -23 -17 0 -18 27 -1 33 7 3 5 6 -5 6 -10 1 -18 5 -18 11 0 5 -11 26
-25 46 -14 20 -23 40 -20 44 7 11 -58 65 -73 62 -8 -2 -12 4 -10 14 2 9 -3 19
-11 22 -18 6 -5 -56 17 -80 8 -10 12 -18 7 -18 -4 0 -2 -6 4 -14 6 -7 9 -21 5
-30 -3 -9 -1 -16 5 -16 25 0 8 -20 -22 -25 -34 -7 -84 1 -197 30 -36 10 -72
18 -80 19 -9 1 -21 6 -29 10 -7 5 -41 9 -74 10 -50 1 -66 -3 -84 -20 -13 -12
-23 -25 -23 -30 0 -11 -48 -34 -71 -34 -18 0 -33 56 -17 66 14 9 9 74 -6 80
-17 6 -9 44 9 44 7 0 15 -4 17 -10 2 -6 9 -5 18 1 11 8 12 12 3 16 -21 8 -15
43 7 43 11 0 20 7 20 15 0 8 9 24 20 35 11 11 20 27 20 35 0 8 5 15 11 15 6 0
17 7 26 15 12 12 18 13 29 4 11 -9 14 -8 14 5 0 19 35 22 46 4 5 -7 10 -4 15
10 10 26 31 28 49 7 10 -12 10 -15 0 -15 -8 0 -10 -3 -7 -7 9 -9 57 37 57 54
0 15 16 17 25 3z m185 -64 c0 -17 -18 -25 -43 -18 -16 4 -16 6 5 17 31 17 38
18 38 1z m-473 -18 c-3 -8 -6 -5 -6 6 -1 11 2 17 5 13 3 -3 4 -12 1 -19z m280
-378 c26 -11 56 -31 65 -44 24 -33 37 -150 41 -361 2 -99 6 -181 10 -183 18
-7 53 -48 49 -59 -2 -6 8 -31 21 -55 35 -59 52 -121 40 -142 -9 -16 -13 -15
-41 9 -25 21 -32 23 -32 11 0 -9 -3 -16 -8 -16 -4 0 -12 -10 -17 -22 -6 -13
-20 -24 -31 -26 -18 -3 -25 5 -37 40 l-15 43 -1 -40 c-2 -51 -9 -63 -46 -67
-34 -3 -45 -14 -45 -45 0 -29 -20 -40 -27 -14 -4 16 -11 19 -34 14 -40 -8 -46
16 -18 71 28 58 46 65 63 25 20 -47 26 -22 15 60 -10 69 -9 73 15 102 14 17
26 36 26 44 0 17 -27 38 -39 30 -19 -11 -104 -149 -113 -184 -9 -31 -12 -33
-43 -28 -21 4 -36 1 -39 -6 -2 -7 -5 -4 -5 5 -1 9 -7 23 -14 30 -19 21 -37 66
-37 97 0 37 19 91 32 91 11 0 8 66 -9 265 -4 44 -8 125 -8 180 0 115 11 146
65 183 31 21 43 23 102 19 36 -3 88 -15 115 -27z m-347 -395 c0 -12 -4 -12
-20 2 -11 10 -20 21 -20 26 0 4 9 3 20 -3 11 -6 20 -17 20 -25z m-64 -30 c-3
-8 -1 -15 4 -15 15 0 12 -26 -5 -40 -9 -7 -13 -21 -10 -31 4 -13 1 -19 -9 -19
-13 0 -15 9 -10 48 7 61 11 72 25 72 6 0 9 -7 5 -15z m58 -30 c-6 -16 -24 -21
-24 -7 0 11 11 22 21 22 5 0 6 -7 3 -15z m589 -83 c7 -9 7 -16 -1 -24 -9 -9
-8 -16 5 -30 18 -20 33 -24 33 -8 0 6 -6 10 -13 10 -8 0 -14 7 -14 15 0 18 17
15 30 -6 13 -21 -8 -70 -27 -63 -9 3 -14 11 -13 16 1 6 -4 13 -12 16 -10 3
-12 0 -8 -12 5 -11 1 -16 -13 -16 -22 0 -23 1 -14 24 3 9 13 16 20 16 11 0 12
5 6 18 -8 16 -9 47 -2 82 1 10 4 8 7 -5 3 -11 10 -26 16 -33z m1214 32 c-3 -3
-12 -4 -19 -1 -8 3 -5 6 6 6 11 1 17 -2 13 -5z m-1952 -14 c3 -5 -1 -10 -10
-10 -9 0 -13 5 -10 10 3 6 8 10 10 10 2 0 7 -4 10 -10z m1585 0 c0 -5 -7 -10
-16 -10 -8 0 -12 5 -9 10 3 6 10 10 16 10 5 0 9 -4 9 -10z m275 -4 c11 -10 11
-16 2 -25 -7 -7 -12 -17 -12 -22 0 -6 -27 -22 -59 -35 -43 -18 -69 -22 -98
-18 -34 6 -38 5 -31 -11 5 -15 3 -17 -10 -12 -9 4 -24 10 -32 13 -9 4 -15 1
-15 -9 0 -16 -21 -27 -48 -26 -13 0 -11 3 6 11 12 6 22 15 22 20 0 11 -7 10
-31 -2 -13 -7 -19 -7 -19 0 0 5 -7 10 -15 10 -8 0 -15 -7 -15 -15 0 -8 -7 -15
-15 -15 -8 0 -15 4 -15 10 0 5 -7 6 -17 3 -11 -4 -14 -3 -9 5 5 8 -1 12 -16
12 -22 1 -22 1 5 16 15 8 27 23 27 34 0 11 5 20 10 20 6 0 10 -9 10 -19 0 -33
67 -44 91 -15 11 14 11 18 -4 29 -22 16 -10 27 14 14 11 -5 19 -18 19 -28 0
-25 56 -35 65 -12 6 14 9 12 25 -6 10 -13 24 -23 32 -22 9 0 10 2 1 6 -10 3
-10 7 0 18 8 9 16 10 25 3 15 -13 25 -5 29 21 2 14 -3 19 -22 17 -14 0 -25 -4
-25 -8 0 -5 -7 -8 -15 -8 -8 0 -15 4 -15 8 0 11 30 38 50 45 29 11 92 7 105
-7z m48 3 c-8 -8 -16 -8 -30 0 -16 9 -14 10 12 11 21 0 26 -3 18 -11z m-443
-9 c23 -14 -16 -25 -43 -12 -12 6 -29 13 -37 15 -8 3 3 6 25 6 22 0 47 -3 55
-9z m75 -11 c10 -30 3 -31 -30 -4 l-30 24 27 1 c18 0 29 -6 33 -21z m170 11
c3 -5 -3 -10 -14 -10 -12 0 -21 -4 -21 -9 0 -5 -9 -11 -20 -14 -11 -3 -18 0
-17 7 1 6 -4 10 -10 9 -7 -2 -13 4 -13 12 0 11 12 15 44 15 25 0 48 -4 51 -10z
m-365 -21 c0 -5 -7 -9 -15 -9 -9 0 -12 6 -9 15 6 15 24 11 24 -6z m617 15 c-3
-3 -12 -4 -19 -1 -8 3 -5 6 6 6 11 1 17 -2 13 -5z m73 -4 c0 -5 -2 -10 -4 -10
-3 0 -8 5 -11 10 -3 6 -1 10 4 10 6 0 11 -4 11 -10z m-110 -36 c0 -2 -13 -4
-30 -4 -16 0 -30 4 -30 8 0 5 14 7 30 4 17 -2 30 -6 30 -8z m-487 -9 c-3 -9
-8 -14 -10 -11 -3 3 -2 9 2 15 9 16 15 13 8 -4z m87 -1 c0 -8 -4 -12 -10 -9
-5 3 -10 10 -10 16 0 5 5 9 10 9 6 0 10 -7 10 -16z m458 9 c-10 -2 -26 -2 -35
0 -10 3 -2 5 17 5 19 0 27 -2 18 -5z m-541 -99 c-3 -3 -12 -4 -19 -1 -8 3 -5
6 6 6 11 1 17 -2 13 -5z m-1691 -52 c-4 -11 2 -22 16 -31 19 -12 23 -11 35 5
7 10 13 24 13 32 0 7 6 12 13 9 13 -4 11 -96 -3 -110 -11 -13 -51 16 -45 32 3
9 0 11 -10 8 -8 -4 -21 0 -29 8 -8 8 -19 15 -25 15 -12 0 -14 11 -5 34 9 23
47 21 40 -2z m-86 -486 c0 -8 -7 -13 -16 -12 -27 2 -28 -23 -2 -34 l23 -10
-25 3 c-35 3 -41 43 -8 56 13 6 24 10 26 10 1 1 2 -5 2 -13z m320 -80 c0 -3
-4 -8 -10 -11 -5 -3 -10 -1 -10 4 0 6 5 11 10 11 6 0 10 -2 10 -4z m-323 -58
c-3 -8 -6 -5 -6 6 -1 11 2 17 5 13 3 -3 4 -12 1 -19z m2018 -40 c10 -29 35
-82 57 -117 21 -36 38 -70 38 -77 0 -18 -30 -40 -110 -81 -19 -10 -40 -25 -47
-33 -10 -13 -16 -13 -45 5 -18 10 -86 40 -151 66 -65 25 -119 48 -119 50 -1 2
1 13 4 25 4 17 16 22 57 28 35 5 61 16 84 35 55 47 195 149 208 150 3 1 13
-23 24 -51z m-1750 -28 c-28 -12 -57 -12 -50 0 3 6 21 10 38 9 27 0 29 -2 12
-9z m-205 -10 c0 -5 -5 -10 -11 -10 -5 0 -7 5 -4 10 3 6 8 10 11 10 2 0 4 -4
4 -10z m140 -4 c0 -2 -7 -6 -15 -10 -8 -3 -15 -1 -15 4 0 6 7 10 15 10 8 0 15
-2 15 -4z m1402 -228 c-7 -7 -12 -8 -12 -2 0 14 12 26 19 19 2 -3 -1 -11 -7
-17z m98 -47 c0 -12 -29 -23 -42 -15 -6 4 -5 10 3 15 18 11 39 11 39 0z m-200
-25 c0 -2 -7 -7 -16 -10 -8 -3 -12 -2 -9 4 6 10 25 14 25 6z m190 -36 c0 -5
-2 -10 -4 -10 -3 0 -8 5 -11 10 -3 6 -1 10 4 10 6 0 11 -4 11 -10z m-1725 -50
c3 -5 1 -10 -4 -10 -6 0 -11 5 -11 10 0 6 2 10 4 10 3 0 8 -4 11 -10z m3955
-128 c0 -4 -13 -13 -30 -19 -34 -13 -39 -7 -12 13 19 15 42 18 42 6z"/>
<path d="M5250 2769 c0 -5 7 -9 15 -9 8 0 15 -5 15 -11 0 -5 -4 -8 -9 -5 -12
8 -71 -48 -71 -68 0 -9 5 -16 10 -16 6 0 10 6 10 13 0 18 30 44 55 49 11 2 21
13 23 24 2 16 -3 23 -22 26 -15 3 -26 1 -26 -3z"/>
<path d="M5325 2750 c-6 -9 8 -14 28 -11 4 0 7 -4 7 -10 0 -5 5 -7 11 -4 6 5
4 12 -8 21 -22 16 -30 17 -38 4z"/>
<path d="M5402 2734 c9 -3 19 -15 22 -27 4 -18 4 -18 3 3 -1 17 -8 25 -22 27
-14 1 -15 0 -3 -3z"/>
<path d="M5385 2700 c4 -6 11 -8 16 -5 14 9 11 15 -7 15 -8 0 -12 -5 -9 -10z"/>
<path d="M5066 2661 c-4 -7 -5 -15 -2 -18 9 -9 19 4 14 18 -4 11 -6 11 -12 0z"/>
<path d="M5520 2611 c0 -12 5 -21 10 -21 6 0 10 6 10 14 0 8 -4 18 -10 21 -5
3 -10 -3 -10 -14z"/>
<path d="M4260 2520 c0 -5 6 -10 14 -10 8 0 18 5 21 10 3 6 -3 10 -14 10 -12
0 -21 -4 -21 -10z"/>
<path d="M5495 2520 c3 -5 11 -10 16 -10 6 0 7 5 4 10 -3 6 -11 10 -16 10 -6
0 -7 -4 -4 -10z"/>
<path d="M5457 2463 c-4 -3 -7 -12 -7 -20 0 -11 4 -11 20 -1 11 7 20 16 20 20
0 10 -24 10 -33 1z"/>
<path d="M2910 2430 c0 -5 5 -10 11 -10 5 0 7 5 4 10 -3 6 -8 10 -11 10 -2 0
-4 -4 -4 -10z"/>
<path d="M2960 2360 c0 -11 2 -20 4 -20 2 0 11 -3 19 -6 12 -4 14 0 10 15 -7
27 -33 36 -33 11z"/>
<path d="M2641 2354 c0 -11 3 -14 6 -6 3 7 2 16 -1 19 -3 4 -6 -2 -5 -13z"/>
<path d="M3198 2133 c7 -3 16 -2 19 1 4 3 -2 6 -13 5 -11 0 -14 -3 -6 -6z"/>
<path d="M2700 1270 c0 -5 5 -10 10 -10 6 0 10 5 10 10 0 6 -4 10 -10 10 -5 0
-10 -4 -10 -10z"/>
<path d="M4140 1488 c0 -4 18 -8 41 -8 23 0 38 4 34 10 -7 11 -75 10 -75 -2z"/>
<path d="M4177 1456 c-3 -8 -3 -17 0 -20 9 -9 34 15 27 25 -8 13 -21 11 -27
-5z"/>
<path d="M4445 4690 c3 -5 8 -10 11 -10 2 0 4 5 4 10 0 6 -5 10 -11 10 -5 0
-7 -4 -4 -10z"/>
<path d="M2711 4581 c-8 -6 -9 -11 -3 -15 6 -3 14 -1 17 5 9 14 2 20 -14 10z"/>
<path d="M2695 4460 c3 -5 8 -10 11 -10 2 0 4 5 4 10 0 6 -5 10 -11 10 -5 0
-7 -4 -4 -10z"/>
<path d="M2310 2704 c0 -8 5 -12 10 -9 6 4 8 11 5 16 -9 14 -15 11 -15 -7z"/>
<path d="M1785 2404 c-18 -19 -11 -34 16 -34 19 0 26 -24 10 -35 -5 -3 -8 -18
-7 -33 2 -19 10 -28 25 -30 23 -4 27 8 9 26 -9 9 -8 12 8 12 53 1 57 53 4 65
-18 4 -27 11 -24 19 8 20 -23 27 -41 10z"/>
<path d="M1905 2234 c-17 -42 -20 -74 -5 -74 6 0 10 7 10 15 0 14 12 19 33 16
13 -2 7 11 -10 24 -14 11 -15 16 -5 28 9 10 9 17 3 22 -6 3 -17 -11 -26 -31z"/>
<path d="M2328 2133 c-13 -14 -15 -26 -8 -53 4 -19 8 -26 9 -15 1 16 3 17 11
5 8 -13 10 -13 14 0 11 30 11 73 0 77 -6 2 -18 -4 -26 -14z"/>
<path d="M1946 2088 c-16 -49 -15 -66 4 -83 19 -17 20 -17 20 2 0 12 7 23 15
27 22 8 18 29 -10 49 -19 14 -26 15 -29 5z"/>
<path d="M2357 1843 c-13 -13 -7 -33 11 -33 9 0 13 -4 7 -8 -12 -9 -15 -72 -4
-72 5 0 9 3 8 8 -1 4 2 18 6 31 8 23 9 23 23 5 13 -18 14 -18 7 6 -15 59 -38
83 -58 63z"/>
<path d="M2245 1580 c3 -5 13 -10 21 -10 8 0 14 5 14 10 0 6 -9 10 -21 10 -11
0 -17 -4 -14 -10z"/>
<path d="M2220 1440 c0 -5 5 -10 10 -10 6 0 10 5 10 10 0 6 -4 10 -10 10 -5 0
-10 -4 -10 -10z"/>
<path d="M1685 1200 c-7 -12 2 -30 16 -30 12 0 12 27 0 35 -5 3 -12 1 -16 -5z"/>
<path d="M1890 950 c0 -24 15 -27 24 -4 9 22 8 24 -9 24 -8 0 -15 -9 -15 -20z"/>
<path d="M1877 799 c-15 -17 -27 -37 -27 -45 0 -18 -24 -18 -40 1 -19 23 -58
-18 -52 -56 4 -27 22 -42 22 -18 0 6 7 9 15 5 10 -3 15 1 15 11 0 27 13 5 17
-28 1 -17 -2 -39 -7 -50 -8 -15 -7 -19 5 -19 9 0 15 9 15 25 0 14 5 25 11 25
5 0 7 5 3 11 -4 7 -1 10 7 7 26 -9 61 104 37 118 -5 3 -4 12 3 20 24 29 2 22
-24 -7z m-7 -99 c0 -5 -5 -10 -11 -10 -5 0 -7 5 -4 10 3 6 8 10 11 10 2 0 4
-4 4 -10z"/>
<path d="M1930 780 c0 -5 7 -10 16 -10 8 0 12 5 9 10 -3 6 -10 10 -16 10 -5 0
-9 -4 -9 -10z"/>
<path d="M2138 543 c7 -3 16 -2 19 1 4 3 -2 6 -13 5 -11 0 -14 -3 -6 -6z"/>
<path d="M1900 219 c0 -5 5 -7 10 -4 6 3 10 8 10 11 0 2 -4 4 -10 4 -5 0 -10
-5 -10 -11z"/>
</g>
</svg>
